<?xml version="1.0" encoding="utf-8"?>
<!-- Generator: Adobe Illustrator 21.0.0, SVG Export Plug-In . SVG Version: 6.00 Build 0)  -->
<svg version="1.1" id="Layer_x5F_1" xmlns="http://www.w3.org/2000/svg" xmlns:xlink="http://www.w3.org/1999/xlink" x="0px"
	 y="0px" viewBox="0 0 65 313.4" style="enable-background:new 0 0 65 313.4;" xml:space="preserve">
<style type="text/css">
	.st0{fill:#FFFFFF;stroke:#000000;stroke-miterlimit:10;}
	.st1{font-family:'JosefinSlab-Bold';}
	.st2{font-size:9px;}
	.st3{enable-background:new    ;}
	.st4{fill:#1B9E77;}
	.st5{fill:#7570B3;}
	.st6{fill:none;stroke:#7570B3;stroke-miterlimit:10;stroke-dasharray:2;}
	.st7{fill:none;stroke:#000000;stroke-miterlimit:10;}
	.st8{fill:none;stroke:#1B9E77;stroke-miterlimit:10;stroke-dasharray:2;}
	.st9{fill:none;stroke:#1B9E77;stroke-miterlimit:10;stroke-dasharray:1.8822,1.8822;}
</style>
<g>
	<path class="st0" d="M58,312.9H7c-3.6,0-6.5-2.9-6.5-6.5v-51c0-3.6,2.9-6.5,6.5-6.5h51c3.6,0,6.5,2.9,6.5,6.5v51
		C64.5,310,61.6,312.9,58,312.9z"/>
	<text id="TextFrame_x5F_15" transform="matrix(1 0 0 1 5.4453 309.6903)" class="st1 st2">Attribute join </text>
	<g class="st3">
		<path d="M32.5,256.4l-4.4,3.2v-8.1l4.4,3.2l4.4-3.2v8.1L32.5,256.4z M29.4,253.8v3.4l2.3-1.7L29.4,253.8z M35.7,253.8l-2.3,1.7
			l2.3,1.7V253.8z"/>
	</g>
	<g id="GroupItem_x5F_1">
		<circle id="PathItem_x5F_29" class="st4" cx="8.2" cy="265.5" r="4.2"/>
		<circle id="PathItem_x5F_27" class="st4" cx="8.2" cy="295.5" r="4.2"/>
		<circle id="PathItem_x5F_26" class="st5" cx="56.8" cy="265.5" r="4.2"/>
		<circle id="PathItem_x5F_25" class="st5" cx="56.8" cy="275.5" r="4.2"/>
		<circle id="PathItem_x5F_24" class="st5" cx="56.8" cy="295.5" r="4.2"/>
		<circle id="PathItem_x5F_23" class="st4" cx="28.2" cy="265.5" r="4.2"/>
		<circle id="PathItem_x5F_22" class="st4" cx="28.2" cy="285.5" r="4.2"/>
		<circle id="PathItem_x5F_21" class="st5" cx="36.8" cy="265.5" r="4.2"/>
		<circle id="PathItem_x5F_21_2_" class="st6" cx="36.8" cy="275.5" r="4.2"/>
		<circle id="PathItem_x5F_20" class="st5" cx="36.8" cy="285.5" r="4.2"/>
		<g id="PathItem_x5F_19">
			<g>
				<path class="st7" d="M12.4,295.5c4.7,0,5.6-6.4,8.8-9"/>
				<g>
					<path d="M24.1,285.5c-1.1,1-2.4,2.5-3.1,3.8l-0.1-2.5l-1.7-1.9C20.6,285.3,22.5,285.5,24.1,285.5z"/>
				</g>
			</g>
		</g>
		<circle id="PathItem_x5F_22_1_" class="st4" cx="28.2" cy="275.5" r="4.2"/>
		<g id="PathItem_x5F_19_8_">
			<g>
				<path class="st7" d="M12.4,265.5c4.7,0,5.6,6.4,8.8,9"/>
				<g>
					<path d="M24.1,275.5c-1.5,0-3.5,0.1-4.9,0.6l1.7-1.9l0.1-2.5C21.6,273,22.9,274.5,24.1,275.5z"/>
				</g>
			</g>
		</g>
		<g id="PathItem_x5F_19_1_">
			<g>
				<path class="st7" d="M52.5,275.5c-4.7,0-5.6,6.4-8.8,9"/>
				<g>
					<path d="M40.9,285.5c1.1-1,2.4-2.5,3.1-3.8l0.1,2.5l1.7,1.9C44.4,285.6,42.5,285.5,40.9,285.5z"/>
				</g>
			</g>
		</g>
		<circle id="PathItem_x5F_22_2_" class="st8" cx="28.2" cy="295.5" r="4.2"/>
		<circle id="PathItem_x5F_20_1_" class="st5" cx="36.8" cy="295.5" r="4.2"/>
		<g id="PathItem_x5F_19_9_">
			<g>
				<path class="st7" d="M52.5,295.5c-4.6,0-5.5,0-8.6,0"/>
				<g>
					<path d="M40.9,295.5c1.4-0.5,3.2-1.4,4.3-2.4l-0.9,2.4l0.9,2.4C44.1,296.9,42.4,296,40.9,295.5z"/>
				</g>
			</g>
		</g>
		<g id="PathItem_x5F_19_2_">
			<g>
				<path class="st7" d="M52.5,265.5c-4.6,0-5.5,0-8.6,0"/>
				<g>
					<path d="M40.9,265.5c1.4-0.5,3.2-1.4,4.3-2.4l-0.9,2.4l0.9,2.4C44.1,266.9,42.4,266,40.9,265.5z"/>
				</g>
			</g>
		</g>
		<g id="PathItem_x5F_19_3_">
			<g>
				<path class="st7" d="M12.4,265.5c4.6,0,5.5,0,8.6,0"/>
				<g>
					<path d="M24.1,265.5c-1.4,0.5-3.2,1.4-4.3,2.4l0.9-2.4l-0.9-2.4C20.9,264.1,22.6,265,24.1,265.5z"/>
				</g>
			</g>
		</g>
	</g>
	<g>
		<path d="M39.5,260.9c-0.6,0-1-0.3-1.2-0.9c-0.1-0.4-0.2-0.8-0.2-1.4c0-1.3,0.5-2.2,1.5-2.2c0.6,0,0.9,0.2,1.1,0.6
			c0.2,0.4,0.3,1,0.3,1.7C40.9,260,40.4,260.9,39.5,260.9z M40.4,258.6c0-0.8-0.1-2-0.9-2c-0.4,0-0.8,0.4-0.8,1.8v0.2H40.4z
			 M40.4,258.8h-1.7c0,0.9,0.1,2,0.9,2C40.1,260.7,40.4,260,40.4,258.8L40.4,258.8z"/>
	</g>
</g>
<g>
	<path class="st0" d="M58,64.5H7c-3.6,0-6.5-2.9-6.5-6.5V7c0-3.6,2.9-6.5,6.5-6.5h51c3.6,0,6.5,2.9,6.5,6.5v51
		C64.5,61.6,61.6,64.5,58,64.5z"/>
	<g id="GroupItem_x5F_1_2_">
		<circle id="PathItem_x5F_29_2_" class="st4" cx="8.2" cy="27.1" r="4.2"/>
		<circle id="PathItem_x5F_28_2_" class="st4" cx="8.2" cy="37.1" r="4.2"/>
		<circle id="PathItem_x5F_27_2_" class="st4" cx="8.2" cy="47.1" r="4.2"/>
		<circle id="PathItem_x5F_26_2_" class="st5" cx="56.8" cy="27.1" r="4.2"/>
		<circle id="PathItem_x5F_25_2_" class="st5" cx="56.8" cy="37.1" r="4.2"/>
		<circle id="PathItem_x5F_23_9_" class="st4" cx="28.2" cy="27.1" r="4.2"/>
		<circle id="PathItem_x5F_21_9_" class="st5" cx="36.8" cy="27.1" r="4.2"/>
		<g id="PathItem_x5F_19_23_">
			<g>
				<path class="st7" d="M52.5,27.1c-4.6,0-5.5,0-8.6,0"/>
				<g>
					<path d="M40.9,27.1c1.4-0.5,3.2-1.4,4.3-2.4l-0.9,2.4l0.9,2.4C44.1,28.5,42.4,27.6,40.9,27.1z"/>
				</g>
			</g>
		</g>
		<g id="PathItem_x5F_19_22_">
			<g>
				<path class="st7" d="M12.4,27.1c4.6,0,5.5,0,8.6,0"/>
				<g>
					<path d="M24.1,27.1c-1.4,0.5-3.2,1.4-4.3,2.4l0.9-2.4l-0.9-2.4C20.9,25.6,22.6,26.5,24.1,27.1z"/>
				</g>
			</g>
		</g>
		<circle id="PathItem_x5F_23_10_" class="st4" cx="28.2" cy="37.1" r="4.2"/>
		<circle id="PathItem_x5F_21_10_" class="st5" cx="36.8" cy="37.1" r="4.2"/>
		<g id="PathItem_x5F_19_27_">
			<g>
				<path class="st7" d="M52.5,37.1c-4.6,0-5.5,0-8.6,0"/>
				<g>
					<path d="M40.9,37.1c1.4-0.5,3.2-1.4,4.3-2.4l-0.9,2.4l0.9,2.4C44.1,38.5,42.4,37.6,40.9,37.1z"/>
				</g>
			</g>
		</g>
		<g id="PathItem_x5F_19_26_">
			<g>
				<path class="st7" d="M12.4,37.1c4.6,0,5.5,0,8.6,0"/>
				<g>
					<path d="M24.1,37.1c-1.4,0.5-3.2,1.4-4.3,2.4l0.9-2.4l-0.9-2.4C20.9,35.6,22.6,36.5,24.1,37.1z"/>
				</g>
			</g>
		</g>
		<circle id="PathItem_x5F_23_11_" class="st4" cx="28.2" cy="47.1" r="4.2"/>
		<circle id="PathItem_x5F_21_11_" class="st6" cx="36.8" cy="47.1" r="4.2"/>
		<g id="PathItem_x5F_19_28_">
			<g>
				<path class="st7" d="M12.4,47.1c4.6,0,5.5,0,8.6,0"/>
				<g>
					<path d="M24.1,47.1c-1.4,0.5-3.2,1.4-4.3,2.4l0.9-2.4l-0.9-2.4C20.9,45.6,22.6,46.5,24.1,47.1z"/>
				</g>
			</g>
		</g>
		<circle id="PathItem_x5F_29_3_" class="st4" cx="8.2" cy="17.1" r="4.2"/>
		<circle id="PathItem_x5F_26_4_" class="st5" cx="56.8" cy="17.1" r="4.2"/>
		<circle id="PathItem_x5F_23_2_" class="st4" cx="28.2" cy="17.1" r="4.2"/>
		<circle id="PathItem_x5F_21_5_" class="st5" cx="36.8" cy="17.1" r="4.2"/>
		<g id="PathItem_x5F_19_36_">
			<g>
				<path class="st7" d="M52.5,17.1c-4.6,0-5.5,0-8.6,0"/>
				<g>
					<path d="M40.9,17.1c1.4-0.5,3.2-1.4,4.3-2.4l-0.9,2.4l0.9,2.4C44.1,18.5,42.4,17.6,40.9,17.1z"/>
				</g>
			</g>
		</g>
		<g id="PathItem_x5F_19_12_">
			<g>
				<path class="st7" d="M12.4,17.1c4.6,0,5.5,0,8.6,0"/>
				<g>
					<path d="M24.1,17.1c-1.4,0.5-3.2,1.4-4.3,2.4l0.9-2.4l-0.9-2.4C20.9,15.6,22.6,16.5,24.1,17.1z"/>
				</g>
			</g>
		</g>
	</g>
	<text id="TextFrame_x5F_3" transform="matrix(1 0 0 1 11.7113 61.2502)" class="st1 st2">Direct join </text>
	<g class="st3">
		<path d="M38.1,5.3c-1.3,0.6-2.2,1.2-3.1,2.3l-0.3-0.2C35,7,35.2,6.8,35.4,6.5c0-0.1,0.4-0.4,0.4-0.5s-0.2-0.1-0.4-0.1h-5.5
			c-0.2,0-0.4,0-0.4,0.2c0,0.1,0.3,0.4,0.4,0.5C30,6.7,30.2,7,30.5,7.3l-0.3,0.3c-0.9-1-1.9-1.8-3.1-2.3V5.2
			c1.3-0.6,2.2-1.2,3.1-2.3l0.3,0.2C30.2,3.5,30,3.7,29.7,4c0,0.1-0.4,0.4-0.4,0.5s0.3,0.1,0.6,0.1h5.2c0.2,0,0.6,0,0.6-0.2
			c0-0.1-0.3-0.4-0.4-0.5c-0.2-0.3-0.5-0.6-0.7-0.9l0.3-0.3c0.9,1,1.9,1.8,3.1,2.3v0.3H38.1z"/>
	</g>
</g>
<g>
	<path class="st0" d="M58,147H7c-3.6,0-6.5-2.9-6.5-6.5v-51C0.5,85.9,3.4,83,7,83h51c3.6,0,6.5,2.9,6.5,6.5v51
		C64.5,144.1,61.6,147,58,147z"/>
	<text id="TextFrame_x5F_1" transform="matrix(1 0 0 1 8.8724 143.7304)" class="st1 st2">Concatenate</text>
	<g class="st3">
		<path d="M33,90.3v3.2h-1.1v-3.2h-3.2v-1.1h3.2V86H33v3.2h3.2v1.1C36.2,90.3,33,90.3,33,90.3z"/>
	</g>
	<g id="GroupItem_x5F_1_3_">
		<circle id="PathItem_x5F_28_3_" class="st4" cx="8.2" cy="99.7" r="4.2"/>
		<circle id="PathItem_x5F_27_3_" class="st4" cx="8.2" cy="109.7" r="4.2"/>
		<circle id="PathItem_x5F_26_3_" class="st5" cx="56.8" cy="119.7" r="4.2"/>
		<circle id="PathItem_x5F_25_3_" class="st5" cx="56.8" cy="129.7" r="4.2"/>
		<circle id="PathItem_x5F_21_14_" class="st5" cx="36.8" cy="119.7" r="4.2"/>
		<g id="PathItem_x5F_19_33_">
			<g>
				<path class="st7" d="M52.5,119.7c-4.6,0-5.5,0-8.6,0"/>
				<g>
					<path d="M40.9,119.7c1.4-0.5,3.2-1.4,4.3-2.4l-0.9,2.4l0.9,2.4C44.1,121.2,42.4,120.3,40.9,119.7z"/>
				</g>
			</g>
		</g>
		<circle id="PathItem_x5F_23_13_" class="st4" cx="28.2" cy="99.7" r="4.2"/>
		<circle id="PathItem_x5F_21_13_" class="st5" cx="36.8" cy="129.7" r="4.2"/>
		<g id="PathItem_x5F_19_31_">
			<g>
				<path class="st7" d="M52.5,129.7c-4.6,0-5.5,0-8.6,0"/>
				<g>
					<path d="M40.9,129.7c1.4-0.5,3.2-1.4,4.3-2.4l-0.9,2.4l0.9,2.4C44.1,131.2,42.4,130.3,40.9,129.7z"/>
				</g>
			</g>
		</g>
		<g id="PathItem_x5F_19_30_">
			<g>
				<path class="st7" d="M12.4,99.7c4.6,0,5.5,0,8.6,0"/>
				<g>
					<path d="M24.1,99.7c-1.4,0.5-3.2,1.4-4.3,2.4l0.9-2.4l-0.9-2.4C20.9,98.3,22.6,99.2,24.1,99.7z"/>
				</g>
			</g>
		</g>
		<circle id="PathItem_x5F_23_12_" class="st4" cx="28.2" cy="109.7" r="4.2"/>
		<g id="PathItem_x5F_23_17_">
			<circle class="st9" cx="28.2" cy="119.7" r="4.2"/>
		</g>
		<g id="PathItem_x5F_23_16_">
			<circle class="st9" cx="28.2" cy="129.7" r="4.2"/>
		</g>
		<circle id="PathItem_x5F_21_16_" class="st6" cx="36.8" cy="99.7" r="4.2"/>
		<circle id="PathItem_x5F_21_15_" class="st6" cx="36.8" cy="109.7" r="4.2"/>
		<g id="PathItem_x5F_19_24_">
			<g>
				<path class="st7" d="M12.4,109.7c4.6,0,5.5,0,8.6,0"/>
				<g>
					<path d="M24.1,109.7c-1.4,0.5-3.2,1.4-4.3,2.4l0.9-2.4l-0.9-2.4C20.9,108.3,22.6,109.2,24.1,109.7z"/>
				</g>
			</g>
		</g>
	</g>
</g>
<g>
	<path class="st0" d="M58,229.5H7c-3.6,0-6.5-2.9-6.5-6.5v-51c0-3.6,2.9-6.5,6.5-6.5h51c3.6,0,6.5,2.9,6.5,6.5v51
		C64.5,226.5,61.6,229.5,58,229.5z"/>
	<text id="TextFrame_x5F_5" transform="matrix(1 0 0 1 13.2355 226.2103)" class="st1 st2">Cross join </text>
	<g class="st3">
		<path d="M35.1,174.7l-2.7-2.7l-2.7,2.7L29,174l2.7-2.7l-2.7-2.7l0.7-0.7l2.7,2.7l2.7-2.7l0.7,0.7l-2.7,2.7l2.7,2.7L35.1,174.7z"/>
	</g>
	<g id="GroupItem_x5F_1_1_">
		<circle id="PathItem_x5F_29_1_" class="st4" cx="8.2" cy="192" r="4.2"/>
		<circle id="PathItem_x5F_28_1_" class="st4" cx="8.2" cy="202" r="4.2"/>
		<circle id="PathItem_x5F_26_1_" class="st5" cx="56.8" cy="192" r="4.2"/>
		<circle id="PathItem_x5F_25_1_" class="st5" cx="56.8" cy="202" r="4.2"/>
		<circle id="PathItem_x5F_23_1_" class="st4" cx="28.2" cy="202" r="4.2"/>
		<circle id="PathItem_x5F_21_1_" class="st5" cx="36.8" cy="202" r="4.2"/>
		<g id="PathItem_x5F_19_7_">
			<g>
				<path class="st7" d="M12.4,192c4.7,0,5.6-6.4,8.8-9"/>
				<g>
					<path d="M24.1,182c-1.1,1-2.4,2.5-3.1,3.8l-0.1-2.5l-1.7-1.9C20.6,181.9,22.5,182,24.1,182z"/>
				</g>
			</g>
		</g>
		<g id="PathItem_x5F_19_6_">
			<g>
				<path class="st7" d="M52.5,192c-4.7,0-5.6,6.4-8.8,9"/>
				<g>
					<path d="M40.9,202c1.1-1,2.4-2.5,3.1-3.8l0.1,2.5l1.7,1.9C44.4,202.2,42.5,202,40.9,202z"/>
				</g>
			</g>
		</g>
		<g id="PathItem_x5F_19_5_">
			<g>
				<path class="st7" d="M52.5,192c-4.7,0-5.6-6.4-8.8-9"/>
				<g>
					<path d="M40.9,182c1.5,0,3.5-0.1,4.9-0.6l-1.7,1.9l-0.1,2.5C43.4,184.5,42.1,183,40.9,182z"/>
				</g>
			</g>
		</g>
		<g id="PathItem_x5F_19_4_">
			<g>
				<path class="st7" d="M12.4,192c4.6,0,5.5,0,8.6,0"/>
				<g>
					<path d="M24.1,192c-1.4,0.5-3.2,1.4-4.3,2.4l0.9-2.4l-0.9-2.4C20.9,190.6,22.6,191.5,24.1,192z"/>
				</g>
			</g>
		</g>
		<circle id="PathItem_x5F_23_3_" class="st4" cx="28.2" cy="192" r="4.2"/>
		<circle id="PathItem_x5F_21_3_" class="st5" cx="36.8" cy="192" r="4.2"/>
		<circle id="PathItem_x5F_23_4_" class="st4" cx="28.2" cy="212" r="4.2"/>
		<circle id="PathItem_x5F_21_4_" class="st5" cx="36.8" cy="212" r="4.2"/>
		<circle id="PathItem_x5F_23_7_" class="st4" cx="28.2" cy="182" r="4.2"/>
		<circle id="PathItem_x5F_21_7_" class="st5" cx="36.8" cy="182" r="4.2"/>
		<g id="PathItem_x5F_19_11_">
			<g>
				<path class="st7" d="M12.4,202c4.6,0,5.5,0,8.6,0"/>
				<g>
					<path d="M24.1,202c-1.4,0.5-3.2,1.4-4.3,2.4l0.9-2.4l-0.9-2.4C20.9,200.6,22.6,201.5,24.1,202z"/>
				</g>
			</g>
		</g>
		<g id="PathItem_x5F_19_10_">
			<g>
				<path class="st7" d="M12.4,202c4.7,0,5.6,6.4,8.8,9"/>
				<g>
					<path d="M24.1,212c-1.5,0-3.5,0.1-4.9,0.6l1.7-1.9l0.1-2.5C21.6,209.5,22.9,211,24.1,212z"/>
				</g>
			</g>
		</g>
		<g id="PathItem_x5F_19_15_">
			<g>
				<path class="st7" d="M52.5,202c-4.7,0-5.6-6.4-8.8-9"/>
				<g>
					<path d="M40.9,192c1.5,0,3.5-0.1,4.9-0.6l-1.7,1.9l-0.1,2.5C43.4,194.5,42.1,193,40.9,192z"/>
				</g>
			</g>
		</g>
		<g id="PathItem_x5F_19_17_">
			<g>
				<path class="st7" d="M52.5,202c-4.7,0-5.6,6.4-8.8,9"/>
				<g>
					<path d="M40.9,212c1.1-1,2.4-2.5,3.1-3.8l0.1,2.5l1.7,1.9C44.4,212.2,42.5,212,40.9,212z"/>
				</g>
			</g>
		</g>
	</g>
</g>
</svg>
