<?xml version="1.0" encoding="utf-8"?>
<!-- Generator: Adobe Illustrator 21.0.0, SVG Export Plug-In . SVG Version: 6.00 Build 0)  -->
<svg version="1.1" id="Layer_1" xmlns="http://www.w3.org/2000/svg" xmlns:xlink="http://www.w3.org/1999/xlink" x="0px" y="0px"
	 viewBox="0 0 512 512" style="enable-background:new 0 0 512 512;" xml:space="preserve">
<style type="text/css">
	.st0{fill:#FFFFFF;}
	.st1{font-family:'JosefinSlab-Bold';}
	.st2{font-size:55.3846px;}
	.st3{enable-background:new    ;}
	.st4{fill:#1B9E77;}
	.st5{fill:#7570B3;}
</style>
<g>
	<g>
		<path class="st0" d="M412.9,452.9H99.1c-22.2,0-40-17.8-40-40V99.1c0-22.2,17.8-40,40-40h313.8c22.2,0,40,17.8,40,40v313.8
			C452.9,435.1,435.1,452.9,412.9,452.9z"/>
		<path d="M412.9,456H99.1C75.3,456,56,436.7,56,412.9V99.1C56,75.3,75.3,56,99.1,56h313.8c23.8,0,43.1,19.3,43.1,43.1v313.8
			C456,436.7,436.7,456,412.9,456z M99.1,62.2c-20.4,0-36.9,16.6-36.9,36.9v313.8c0,20.4,16.6,36.9,36.9,36.9h313.8
			c20.4,0,36.9-16.6,36.9-36.9V99.1c0-20.4-16.6-36.9-36.9-36.9H99.1z"/>
	</g>
	<text id="TextFrame_x5F_1" transform="matrix(1 0 0 1 110.5972 426.6504)" class="st1 st2">Concatenate</text>
	<g class="st3">
		<path d="M259.1,104v19.7h-6.8V104h-19.7v-6.8h19.7V77.5h6.8v19.7h19.7v6.8C278.8,104,259.1,104,259.1,104z"/>
	</g>
	<g id="GroupItem_x5F_1_3_">
		<circle id="PathItem_x5F_28_3_" class="st4" cx="106.5" cy="161.8" r="25.8"/>
		<circle id="PathItem_x5F_27_3_" class="st4" cx="106.5" cy="223.4" r="25.8"/>
		<circle id="PathItem_x5F_26_3_" class="st5" cx="405.5" cy="284.9" r="25.8"/>
		<circle id="PathItem_x5F_25_3_" class="st5" cx="405.5" cy="346.5" r="25.8"/>
		<circle id="PathItem_x5F_21_14_" class="st5" cx="282.5" cy="284.9" r="25.8"/>
		<g id="PathItem_x5F_19_33_">
			<g>
				<rect x="326.2" y="281.8" width="52.9" height="6.2"/>
				<g>
					<path d="M307.7,284.9c8.6-3.1,19.7-8.6,26.5-14.8l-5.5,14.8l5.5,14.8C327.4,294.2,316.9,288.6,307.7,284.9z"/>
				</g>
			</g>
		</g>
		<circle id="PathItem_x5F_23_13_" class="st4" cx="229.5" cy="161.8" r="25.8"/>
		<circle id="PathItem_x5F_21_13_" class="st5" cx="282.5" cy="346.5" r="25.8"/>
		<g id="PathItem_x5F_19_31_">
			<g>
				<rect x="326.2" y="343.4" width="52.9" height="6.2"/>
				<g>
					<path d="M307.7,346.5c8.6-3.1,19.7-8.6,26.5-14.8l-5.5,14.8l5.5,14.8C327.4,355.7,316.9,350.2,307.7,346.5z"/>
				</g>
			</g>
		</g>
		<g id="PathItem_x5F_19_30_">
			<g>
				<rect x="132.3" y="158.8" width="52.9" height="6.2"/>
				<g>
					<path d="M204.3,161.8c-8.6,3.1-19.7,8.6-26.5,14.8l5.5-14.8l-5.5-14.8C184.6,153.2,195.1,158.8,204.3,161.8z"/>
				</g>
			</g>
		</g>
		<circle id="PathItem_x5F_23_12_" class="st4" cx="229.5" cy="223.4" r="25.8"/>
		<g id="PathItem_x5F_23_17_">
			<path class="st4" d="M229.7,313.8l0-6.2c3.4,0,6.8-0.8,9.8-2.3l2.7,5.5C238.3,312.8,234.1,313.8,229.7,313.8z M217.2,311.1
				c-3.9-1.9-7.4-4.6-10.1-8l4.8-3.9c2.1,2.6,4.9,4.8,8,6.3L217.2,311.1z M252.2,302.9l-4.8-3.8c2.1-2.7,3.6-5.8,4.4-9.1l6,1.3
				C256.8,295.5,254.9,299.5,252.2,302.9z M201.4,291.6c-0.5-2.2-0.8-4.4-0.8-6.7c0-2.1,0.2-4.2,0.7-6.2l6,1.3
				c-0.3,1.6-0.5,3.2-0.5,4.9c0,1.8,0.2,3.5,0.6,5.2L201.4,291.6z M251.7,279.8c-0.8-3.3-2.3-6.4-4.4-9.1l4.8-3.8
				c2.7,3.4,4.6,7.4,5.6,11.6L251.7,279.8z M211.6,270.9l-4.8-3.8c2.7-3.4,6.1-6.2,10-8.1l2.7,5.5
				C216.4,266,213.7,268.2,211.6,270.9z M239.4,264.4c-3.1-1.5-6.4-2.2-9.9-2.2l-0.3-6.2h0.3c4.4,0,8.6,1,12.5,2.8L239.4,264.4z"/>
		</g>
		<g id="PathItem_x5F_23_16_">
			<path class="st4" d="M229.7,375.4l0-6.2c3.4,0,6.8-0.8,9.8-2.3l2.7,5.5C238.3,374.4,234.1,375.4,229.7,375.4z M217.2,372.6
				c-3.9-1.9-7.4-4.6-10.1-8l4.8-3.9c2.1,2.6,4.9,4.8,8,6.3L217.2,372.6z M252.2,364.4l-4.8-3.8c2.1-2.7,3.6-5.8,4.4-9.1l6,1.3
				C256.8,357,254.9,361,252.2,364.4z M201.4,353.1c-0.5-2.2-0.8-4.4-0.8-6.7c0-2.1,0.2-4.2,0.7-6.2l6,1.3c-0.3,1.6-0.5,3.2-0.5,4.9
				c0,1.8,0.2,3.5,0.6,5.2L201.4,353.1z M251.7,341.3c-0.8-3.3-2.3-6.4-4.4-9.1l4.8-3.8c2.7,3.4,4.6,7.4,5.6,11.6L251.7,341.3z
				 M211.6,332.4l-4.8-3.8c2.7-3.4,6.1-6.2,10-8.1l2.7,5.5C216.4,327.6,213.7,329.8,211.6,332.4z M239.4,325.9
				c-3.1-1.5-6.4-2.2-9.9-2.2l-0.3-6.2h0.3c4.4,0,8.6,1,12.5,2.8L239.4,325.9z"/>
		</g>
		<path class="st5" d="M282.5,190.8c-2,0-3.7-0.2-5.5-0.5l1.2-6c1.4,0.3,2.7,0.5,4.4,0.4c2.2,0,4.3-0.3,6.4-0.9l1.7,5.9
			C288,190.4,285.2,190.8,282.5,190.8z M264.6,184.6c-3.6-2.8-6.5-6.5-8.4-10.7l5.6-2.6c1.5,3.3,3.8,6.2,6.6,8.4L264.6,184.6z
			 M302.4,182.8l-4.2-4.5c2.6-2.5,4.6-5.6,5.8-9l5.8,2C308.3,175.6,305.7,179.6,302.4,182.8z M259.7,160.8l-6.1-0.3
			c0.2-4.6,1.5-9.1,3.8-13.1l5.3,3.1C260.9,153.6,259.9,157.1,259.7,160.8z M305,158.6c-0.5-3.6-1.9-7-4-10l5-3.6
			c2.7,3.7,4.4,8.1,5.1,12.7L305,158.6z M270.2,142.7l-3.3-5.2c3.9-2.5,8.3-4,12.9-4.5l0.6,6.1C276.7,139.5,273.2,140.7,270.2,142.7
			z M292.9,141.6c-3.2-1.7-6.7-2.5-10.4-2.5v-6.2c4.6,0,9.2,1.1,13.3,3.2L292.9,141.6z"/>
		<path class="st5" d="M282.5,252.3c-2,0.2-3.7-0.2-5.5-0.5l1.2-6c1.4,0.3,2.7,0.3,4.4,0.4c2.2,0,4.3-0.3,6.4-0.9l1.7,5.9
			C288,251.9,285.2,252.3,282.5,252.3z M264.6,246.1c-3.6-2.8-6.5-6.5-8.4-10.7l5.6-2.6c1.5,3.3,3.8,6.2,6.6,8.4L264.6,246.1z
			 M302.4,244.3l-4.2-4.5c2.6-2.5,4.6-5.6,5.8-9l5.8,2C308.3,237.2,305.7,241.1,302.4,244.3z M259.7,222.3l-6.1-0.3
			c0.2-4.6,1.5-9.1,3.8-13.1l5.3,3.1C260.9,215.1,259.9,218.7,259.7,222.3z M305,220.1c-0.5-3.6-1.9-7-4-10l5-3.6
			c2.7,3.7,4.4,8.1,5.1,12.7L305,220.1z M270.2,204.2l-3.3-5.2c3.9-2.5,8.3-4,12.9-4.5l0.6,6.1C276.7,201.1,273.2,202.3,270.2,204.2
			z M292.9,203.1c-3.2-1.7-6.7-2.5-10.4-2.5v-6.2c4.6,0,9.2,1.1,13.3,3.2L292.9,203.1z"/>
		<g id="PathItem_x5F_19_24_">
			<g>
				<rect x="132.3" y="220.3" width="52.9" height="6.2"/>
				<g>
					<path d="M204.3,223.4c-8.6,3.1-19.7,8.6-26.5,14.8l5.5-14.8l-5.5-14.8C184.6,214.8,195.1,220.3,204.3,223.4z"/>
				</g>
			</g>
		</g>
	</g>
</g>
</svg>
