<?xml version="1.0" encoding="utf-8"?>
<!-- Generator: Adobe Illustrator 21.0.0, SVG Export Plug-In . SVG Version: 6.00 Build 0)  -->
<svg version="1.1" id="Layer_1" xmlns="http://www.w3.org/2000/svg" xmlns:xlink="http://www.w3.org/1999/xlink" x="0px" y="0px"
	 viewBox="0 0 512 512" style="enable-background:new 0 0 512 512;" xml:space="preserve">
<style type="text/css">
	.st0{fill:#FFFFFF;}
	.st1{font-family:'JosefinSlab-Bold';}
	.st2{font-size:55.3846px;}
	.st3{enable-background:new    ;}
	.st4{fill:#1B9E77;}
	.st5{fill:#7570B3;}
</style>
<g>
	<g>
		<path class="st0" d="M412.9,452.9H99.1c-22.2,0-40-17.8-40-40V99.1c0-22.2,17.8-40,40-40h313.8c22.2,0,40,17.8,40,40v313.8
			C452.9,434.5,435.1,452.9,412.9,452.9z"/>
		<path d="M412.9,456H99.1C75.3,456,56,436.7,56,412.9V99.1C56,75.3,75.3,56,99.1,56h313.8c23.8,0,43.1,19.3,43.1,43.1v313.8
			C456,436.3,436.3,456,412.9,456z M99.1,62.2c-20.4,0-36.9,16.6-36.9,36.9v313.8c0,20.4,16.6,36.9,36.9,36.9h313.8
			c20,0,36.9-16.9,36.9-36.9V99.1c0-20.4-16.6-36.9-36.9-36.9H99.1z"/>
	</g>
	<text id="TextFrame_x5F_5" transform="matrix(1 0 0 1 99.459 426.5234)" class="st1 st2">Cross product</text>
	<g class="st3">
		<path d="M272,115.7l-16.6-16.6l-16.6,16.6l-4.3-4.3l16.6-16.6l-16.6-16.6l4.3-4.3l16.6,16.6L272,73.8l4.3,4.3l-16.6,16.6
			l16.6,16.6L272,115.7z"/>
	</g>
	<g id="GroupItem_x5F_1_1_">
		<circle id="PathItem_x5F_29_1_" class="st4" cx="106.5" cy="222.2" r="25.8"/>
		<circle id="PathItem_x5F_28_1_" class="st4" cx="106.5" cy="283.7" r="25.8"/>
		<circle id="PathItem_x5F_26_1_" class="st5" cx="405.5" cy="222.2" r="25.8"/>
		<circle id="PathItem_x5F_25_1_" class="st5" cx="405.5" cy="283.7" r="25.8"/>
		<circle id="PathItem_x5F_23_1_" class="st4" cx="229.5" cy="283.7" r="25.8"/>
		<circle id="PathItem_x5F_21_1_" class="st5" cx="282.5" cy="283.7" r="25.8"/>
		<g id="PathItem_x5F_19_7_">
			<g>
				<path d="M132.3,225.2v-6.2c16.3,0,24.6-14.2,33.3-29.3c5.4-9.4,11.1-19,18.9-25.4l3.9,4.8c-6.9,5.6-12.3,14.8-17.4,23.7
					C161.7,208.8,152.2,225.2,132.3,225.2z"/>
				<g>
					<path d="M204.3,160.6c-6.8,6.2-14.8,15.4-19.1,23.4l-0.6-15.4l-10.5-11.7C182.8,160,194.5,160.6,204.3,160.6z"/>
				</g>
			</g>
		</g>
		<g id="PathItem_x5F_19_6_">
			<g>
				<path d="M326.9,279.9l-3.9-4.8c6.9-5.6,12.3-14.8,17.4-23.7c9.2-15.9,18.8-32.4,38.7-32.4v6.2c-16.3,0-24.6,14.2-33.3,29.3
					C340.3,263.9,334.7,273.6,326.9,279.9z"/>
				<g>
					<path d="M307.7,283.7c6.8-6.2,14.8-15.4,19.1-23.4l0.6,15.4l10.5,11.7C329.2,284.9,317.5,283.7,307.7,283.7z"/>
				</g>
			</g>
		</g>
		<g id="PathItem_x5F_19_5_">
			<g>
				<path d="M379.1,225.2c-19.9,0-29.4-16.5-38.7-32.4c-5.2-8.9-10.5-18.1-17.4-23.7l3.9-4.8c7.8,6.4,13.4,16,18.9,25.4
					c8.8,15.1,17,29.3,33.3,29.3V225.2z"/>
				<g>
					<path d="M307.7,160.6c9.2,0,21.5-0.6,30.2-3.7l-10.5,11.7l-0.6,15.4C323.1,176,315.1,166.8,307.7,160.6z"/>
				</g>
			</g>
		</g>
		<g id="PathItem_x5F_19_4_">
			<g>
				<rect x="132.3" y="219.1" width="52.9" height="6.2"/>
				<g>
					<path d="M204.3,222.2c-8.6,3.1-19.7,8.6-26.5,14.8l5.5-14.8l-5.5-14.8C184.6,213.5,195.1,219.1,204.3,222.2z"/>
				</g>
			</g>
		</g>
		<circle id="PathItem_x5F_23_3_" class="st4" cx="229.5" cy="222.2" r="25.8"/>
		<circle id="PathItem_x5F_21_3_" class="st5" cx="282.5" cy="222.2" r="25.8"/>
		<circle id="PathItem_x5F_23_4_" class="st4" cx="229.5" cy="345.2" r="25.8"/>
		<circle id="PathItem_x5F_21_4_" class="st5" cx="282.5" cy="345.2" r="25.8"/>
		<circle id="PathItem_x5F_23_7_" class="st4" cx="229.5" cy="160.6" r="25.8"/>
		<circle id="PathItem_x5F_21_7_" class="st5" cx="282.5" cy="160.6" r="25.8"/>
		<g id="PathItem_x5F_19_11_">
			<g>
				<rect x="132.3" y="280.6" width="52.9" height="6.2"/>
				<g>
					<path d="M204.3,283.7c-8.6,3.1-19.7,8.6-26.5,14.8l5.5-14.8l-5.5-14.8C184.6,275.1,195.1,280.6,204.3,283.7z"/>
				</g>
			</g>
		</g>
		<g id="PathItem_x5F_19_10_">
			<g>
				<path d="M184.5,341.5c-7.8-6.4-13.4-16-18.9-25.4c-8.8-15.1-17-29.3-33.3-29.3v-6.2c19.9,0,29.4,16.5,38.7,32.4
					c5.2,8.9,10.5,18.1,17.4,23.7L184.5,341.5z"/>
				<g>
					<path d="M204.3,345.2c-9.2,0-21.5,0.6-30.2,3.7l10.5-11.7l0.6-15.4C188.9,329.8,196.9,339.1,204.3,345.2z"/>
				</g>
			</g>
		</g>
		<g id="PathItem_x5F_19_15_">
			<g>
				<path d="M379.1,286.8c-19.9,0-29.4-16.5-38.7-32.4c-5.2-8.9-10.5-18.1-17.4-23.7l3.9-4.8c7.8,6.4,13.4,16,18.9,25.4
					c8.8,15.1,17,29.3,33.3,29.3V286.8z"/>
				<g>
					<path d="M307.7,222.2c9.2,0,21.5-0.6,30.2-3.7l-10.5,11.7l-0.6,15.4C323.1,237.5,315.1,228.3,307.7,222.2z"/>
				</g>
			</g>
		</g>
		<g id="PathItem_x5F_19_17_">
			<g>
				<path d="M326.9,341.5l-3.9-4.8c6.9-5.6,12.3-14.8,17.4-23.7c9.2-15.9,18.8-32.4,38.7-32.4v6.2c-16.3,0-24.6,14.2-33.3,29.3
					C340.3,325.4,334.7,335.1,326.9,341.5z"/>
				<g>
					<path d="M307.7,345.2c6.8-6.2,14.8-15.4,19.1-23.4l0.6,15.4l10.5,11.7C329.2,346.5,317.5,345.2,307.7,345.2z"/>
				</g>
			</g>
		</g>
	</g>
</g>
</svg>
