<?xml version="1.0" encoding="utf-8"?>
<!-- Generator: Adobe Illustrator 21.0.2, SVG Export Plug-In . SVG Version: 6.00 Build 0)  -->
<svg version="1.1" id="Layer_1" xmlns="http://www.w3.org/2000/svg" xmlns:xlink="http://www.w3.org/1999/xlink" x="0px" y="0px"
	 viewBox="0 0 512 512" style="enable-background:new 0 0 512 512;" xml:space="preserve">
<path d="M452.7,102.3L355.7,6H59.3v500h393.4l0-396.5L452.7,102.3z M362.9,97.2V56.8l40.4,40.4H362.9z M421.3,128.6v346H90.7V37.4
	h240.8v91.2H421.3z"/>
<path d="M211.1,317.1c-35,0-63.4,28.4-63.4,63.4c0,35,28.4,63.4,63.4,63.4s63.4-28.4,63.4-63.4C274.5,345.5,246,317.1,211.1,317.1z
	 M211.1,412.5c-17.6,0-32-14.4-32-32s14.4-32,32-32c17.6,0,32,14.4,32,32S228.7,412.5,211.1,412.5z"/>
<path d="M295.2,162.5v-44.9H175.4v119.8h44.9v44.9h119.8V162.5H295.2z M251.7,193.9h57v57h-57V193.9z M263.8,149v13.5h-43.5V206
	h-13.5v-57H263.8z"/>
</svg>
