<?xml version="1.0" encoding="utf-8"?>
<!-- Generator: Adobe Illustrator 21.0.0, SVG Export Plug-In . SVG Version: 6.00 Build 0)  -->
<svg version="1.1" id="Layer_1" xmlns="http://www.w3.org/2000/svg" xmlns:xlink="http://www.w3.org/1999/xlink" x="0px" y="0px"
	 viewBox="0 0 512 512" style="enable-background:new 0 0 512 512;" xml:space="preserve">
<g>
	<path d="M169.7,387.4c15.6-15.6,30.8-30.8,46.8-46.8c38,15.3,74.8,11.4,105-18.5c30.3-29.9,35-66.4,19.1-106.6
		c20.2-20.8,41.1-41.1,62.1-62.3c41,27.6,75.1,61.6,103.3,102.1c-4.2,9.3-11,16.6-17.2,24.3c-23.7,29.6-51,55.3-82.4,76.5
		c-30.8,20.8-64,36.5-101,43.4c-17.1,3.2-34.2,5.8-51.6,5.1c-28.3-1-56-6-82.8-15.6C170.7,388.8,170.4,388.1,169.7,387.4z"/>
	<path d="M6,255.6c9.8-12.3,18.5-24.3,28.3-35.2c20.5-22.7,42.6-43.7,68-61c32.9-22.5,68.2-39.3,107.6-46.8
		c17.7-3.4,35.5-5.9,53.5-5.1c25.7,1.1,50.9,5.3,75.2,14c1.5,0.5,2.9,1.3,4.3,2c-2.6,6-28.1,32.5-46.3,48.2
		c-38.4-15.4-75.1-11.6-105.4,18.3c-30.3,29.9-35,66.3-19.6,105.5c-4.1,6.6-40.5,43.8-61.3,62.6C69.4,331.1,35.3,296.9,6,255.6z"/>
	<path d="M423.5,66.5c7.7,7.8,14.7,14.9,22.5,22.7C327.3,207.8,208.6,326.5,89.5,445.5c-7.1-7.7-14.1-15.2-21.7-23.5
		C185.6,304.3,304.3,185.6,423.5,66.5z"/>
</g>
</svg>
