<?xml version="1.0" encoding="utf-8"?>
<!-- Generator: Adobe Illustrator 21.0.0, SVG Export Plug-In . SVG Version: 6.00 Build 0)  -->
<svg version="1.1" id="Layer_1" xmlns="http://www.w3.org/2000/svg" xmlns:xlink="http://www.w3.org/1999/xlink" x="0px" y="0px"
	 viewBox="0 0 512 512" style="enable-background:new 0 0 512 512;" xml:space="preserve">
<path d="M455.4,256.3c0,24.3-0.2,48.7,0.1,73.1c0.1,6.8-2.1,11.8-6.9,16.5C414.3,380,380,414.2,346,448.5c-5,5-10.3,7.4-17.4,7.3
	c-48.4-0.1-96.8-0.1-145.2,0c-6.7,0-12.1-2-16.7-6.8c-34.6-34.8-69.2-69.4-104-104.1c-4.3-4.3-6.2-8.8-6.2-15
	c0.2-49,0.2-98.1,0-147.1c0-7.2,2.3-12.4,7.4-17.3c34.2-33.8,68.2-67.9,102-102c5.3-5.3,11-7.8,18.3-7.6c17.1,0.3,34.3,0.6,51.5,0.6
	c18.7,0,37.4-0.4,56.1-0.5c13.1-0.1,26.2,0,39.3,0c6.4,0,11,3.2,15.4,7.7c22.4,22.6,45,45.1,67.6,67.6c11,11,21.8,22.4,33.2,33
	c6.3,5.9,8.6,12.2,8.4,20.7C455.2,208.8,455.4,232.6,455.4,256.3z M205.2,352.8c8.7-8,16.8-16.5,25.1-24.8
	c8.4-8.3,16.7-16.7,25.1-25.1c2.3,2.2,4.3,4,6,5.7c12.8,12.8,25.5,25.6,38.4,38.4c2.8,2.7,5.3,6.5,10.2,4.8c13.5-11.2,35.4-34,39-41
	c-1.9-2.2-4-5-6.4-7.3c-12.8-12.9-25.6-25.6-38.4-38.4c-1.7-1.7-3.1-3.6-5-5.8c2.5-2.6,4.6-4.9,6.8-7.1
	c12.2-12.2,24.3-24.2,36.4-36.5c2.5-2.5,4.4-5.7,6.8-8.7c-13.8-13.6-26.9-26.3-40.1-39.4c-4.2-1-6.5,2.3-9.1,5
	c-12.9,12.8-25.6,25.6-38.4,38.4c-1.9,1.8-4,3.5-6.6,5.9c-2-2.3-3.4-4.5-5.3-6.2c-12.8-12.9-25.5-25.6-38.4-38.4
	c-2.6-2.6-5.1-5.8-9.6-4.3c-13.4,10.6-36,34.5-39,41.8c16.3,16.3,32.9,33,50,50.1c-9.1,9.1-17.5,17.4-25.8,25.9
	c-8.2,8.4-17.2,16-24.1,25C167.5,318.6,196.6,347.7,205.2,352.8z"/>
</svg>
