<?xml version="1.0" encoding="utf-8"?>
<!-- Generator: Adobe Illustrator 21.0.0, SVG Export Plug-In . SVG Version: 6.00 Build 0)  -->
<svg version="1.1" id="Layer_1" xmlns="http://www.w3.org/2000/svg" xmlns:xlink="http://www.w3.org/1999/xlink" x="0px" y="0px"
	 viewBox="0 0 512 512" style="enable-background:new 0 0 512 512;" xml:space="preserve">
<style type="text/css">
	.st0{fill:#FFFFFF;}
	.st1{fill:#1B9E77;}
	.st2{fill:#7570B3;}
	.st3{font-family:'JosefinSlab-Bold';}
	.st4{font-size:55.3846px;}
	.st5{enable-background:new    ;}
</style>
<g>
	<g>
		<path class="st0" d="M412.9,452.9H99.1c-22.2,0-40-17.8-40-40V99.1c0-22.2,17.8-40,40-40h313.8c22.2,0,40,17.8,40,40v313.8
			C452.9,435.1,435.1,452.9,412.9,452.9z"/>
		<path d="M412.9,456H99.1C75.3,456,56,436.7,56,412.9V99.1C56,75.3,75.3,56,99.1,56h313.8c23.8,0,43.1,19.3,43.1,43.1v313.8
			C456,436.7,436.7,456,412.9,456z M99.1,62.2c-20.4,0-36.9,16.6-36.9,36.9v313.8c0,20.4,16.6,36.9,36.9,36.9h313.8
			c20.4,0,36.9-16.6,36.9-36.9V99.1c0-20.4-16.6-36.9-36.9-36.9H99.1z"/>
	</g>
	<g id="GroupItem_x5F_1_2_">
		<circle id="PathItem_x5F_29_2_" class="st1" cx="106.5" cy="222.8" r="25.8"/>
		<circle id="PathItem_x5F_28_2_" class="st1" cx="106.5" cy="284.3" r="25.8"/>
		<circle id="PathItem_x5F_27_2_" class="st1" cx="106.5" cy="345.8" r="25.8"/>
		<circle id="PathItem_x5F_26_2_" class="st2" cx="405.5" cy="222.8" r="25.8"/>
		<circle id="PathItem_x5F_25_2_" class="st2" cx="405.5" cy="284.3" r="25.8"/>
		<circle id="PathItem_x5F_23_9_" class="st1" cx="229.5" cy="222.8" r="25.8"/>
		<circle id="PathItem_x5F_21_9_" class="st2" cx="282.5" cy="222.8" r="25.8"/>
		<g id="PathItem_x5F_19_23_">
			<g>
				<rect x="326.2" y="219.7" width="52.9" height="6.2"/>
				<g>
					<path d="M307.7,222.8c8.6-3.1,19.7-8.6,26.5-14.8l-5.5,14.8l5.5,14.8C327.4,231.4,316.9,225.8,307.7,222.8z"/>
				</g>
			</g>
		</g>
		<g id="PathItem_x5F_19_22_">
			<g>
				<rect x="132.3" y="219.7" width="52.9" height="6.2"/>
				<g>
					<path d="M204.3,222.8c-8.6,3.1-19.7,8.6-26.5,14.8l5.5-14.8l-5.5-14.8C184.6,213.5,195.1,219.1,204.3,222.8z"/>
				</g>
			</g>
		</g>
		<circle id="PathItem_x5F_23_10_" class="st1" cx="229.5" cy="284.3" r="25.8"/>
		<circle id="PathItem_x5F_21_10_" class="st2" cx="282.5" cy="284.3" r="25.8"/>
		<g id="PathItem_x5F_19_27_">
			<g>
				<rect x="326.2" y="281.2" width="52.9" height="6.2"/>
				<g>
					<path d="M307.7,284.3c8.6-3.1,19.7-8.6,26.5-14.8l-5.5,14.8l5.5,14.8C327.4,292.9,316.9,287.4,307.7,284.3z"/>
				</g>
			</g>
		</g>
		<g id="PathItem_x5F_19_26_">
			<g>
				<rect x="132.3" y="281.2" width="52.9" height="6.2"/>
				<g>
					<path d="M204.3,284.3c-8.6,3.1-19.7,8.6-26.5,14.8l5.5-14.8l-5.5-14.8C184.6,275.1,195.1,280.6,204.3,284.3z"/>
				</g>
			</g>
		</g>
		<circle id="PathItem_x5F_23_11_" class="st1" cx="229.5" cy="345.8" r="25.8"/>
		<path class="st2" d="M282.5,374.8c-1.9,0-3.7-0.2-5.5-0.5l1.2-6c3.5,0.7,7.3,0.5,10.7-0.5l1.7,5.9
			C288,374.4,285.2,374.8,282.5,374.8z M264.6,368.6c-3.6-2.8-6.5-6.6-8.4-10.7l5.6-2.6c1.5,3.3,3.8,6.2,6.6,8.4L264.6,368.6z
			 M302.4,366.8l-4.2-4.5c2.6-2.5,4.6-5.6,5.8-9l5.8,2C308.3,359.6,305.7,363.6,302.4,366.8z M259.7,344.8l-6.1-0.3
			c0.2-4.6,1.5-9.1,3.8-13.1l5.3,3.1C260.9,337.6,259.9,341.1,259.7,344.8z M305,342.6c-0.5-3.6-1.9-7-4-10l5-3.6
			c2.7,3.7,4.4,8.1,5.1,12.7L305,342.6z M270.2,326.7l-3.3-5.2c3.9-2.5,8.3-4,12.9-4.5l0.6,6.1C276.7,323.5,273.2,324.7,270.2,326.7
			z M292.9,325.6c-3.2-1.7-6.7-2.5-10.4-2.5v-6.2c4.6,0,9.2,1.1,13.3,3.2L292.9,325.6z"/>
		<g id="PathItem_x5F_19_28_">
			<g>
				<rect x="132.3" y="342.8" width="52.9" height="6.2"/>
				<g>
					<path d="M204.3,345.8c-8.6,3.1-19.7,8.6-26.5,14.8l5.5-14.8l-5.5-14.8C184.6,336.6,195.1,342.2,204.3,345.8z"/>
				</g>
			</g>
		</g>
		<circle id="PathItem_x5F_29_3_" class="st1" cx="106.5" cy="161.2" r="25.8"/>
		<circle id="PathItem_x5F_26_4_" class="st2" cx="405.5" cy="161.2" r="25.8"/>
		<circle id="PathItem_x5F_23_2_" class="st1" cx="229.5" cy="161.2" r="25.8"/>
		<circle id="PathItem_x5F_21_5_" class="st2" cx="282.5" cy="161.2" r="25.8"/>
		<g id="PathItem_x5F_19_36_">
			<g>
				<rect x="326.2" y="158.2" width="52.9" height="6.2"/>
				<g>
					<path d="M307.7,161.2c8.6-3.1,19.7-8.6,26.5-14.8l-5.5,14.8l5.5,14.8C327.4,169.8,316.9,164.3,307.7,161.2z"/>
				</g>
			</g>
		</g>
		<g id="PathItem_x5F_19_12_">
			<g>
				<rect x="132.3" y="158.2" width="52.9" height="6.2"/>
				<g>
					<path d="M204.3,161.2c-8.6,3.1-19.7,8.6-26.5,14.8l5.5-14.8l-5.5-14.8C184.6,152,195.1,157.5,204.3,161.2z"/>
				</g>
			</g>
		</g>
	</g>
	<text id="TextFrame_x5F_3" transform="matrix(1 0 0 1 150.2163 426.7695)" class="st3 st4">Ordered </text>
	<g class="st5">
		<path d="M290.5,88.6c-8,3.7-13.5,7.4-19.1,14.2l-1.8-1.2c1.8-2.5,3.1-3.7,4.3-5.5c0-0.6,2.5-2.5,2.5-3.1c0-0.6-1.2-0.6-2.5-0.6
			H240c-1.2,0-2.5,0-2.5,1.2c0,0.6,1.8,2.5,2.5,3.1c0.6,0.6,1.8,2.5,3.7,4.3l-1.8,1.8c-5.5-6.2-11.7-11.1-19.1-14.2V88
			c8-3.7,13.5-7.4,19.1-14.2l1.8,1.2c-1.8,2.5-3.1,3.7-4.9,5.5c0,0.6-2.5,2.5-2.5,3.1c0,0.6,1.8,0.6,3.7,0.6h32c1.2,0,3.7,0,3.7-1.2
			c0-0.6-1.8-2.5-2.5-3.1c-1.2-1.8-3.1-3.7-4.3-5.5l1.8-1.8c5.5,6.2,11.7,11.1,19.1,14.2v1.8H290.5z"/>
	</g>
</g>
</svg>
