<?xml version="1.0" encoding="utf-8"?>
<!-- Generator: Adobe Illustrator 21.0.0, SVG Export Plug-In . SVG Version: 6.00 Build 0)  -->
<svg version="1.1" id="Layer_1" xmlns="http://www.w3.org/2000/svg" xmlns:xlink="http://www.w3.org/1999/xlink" x="0px" y="0px"
	 viewBox="0 0 512 512" style="enable-background:new 0 0 512 512;" xml:space="preserve">
<g>
	<path d="M6,256.3c6-8.1,10.8-15.4,16.3-22.1c35.5-43,76.7-79,127.8-102.6c25.1-11.6,51.3-19.2,78.8-22.5
		c16.2-1.9,32.4-2.2,48.5-1.1c25.3,1.7,49.7,7.8,73.2,17.4c37.6,15.4,70.5,37.9,100.1,65.7c19,17.8,36,37.2,51.4,58.1
		c1.3,1.8,2.4,3.8,3.9,6.1c-3.5,8.4-9.7,15.1-15.3,22c-26.4,32.7-56.7,61.3-92.3,84c-28.1,17.9-58.2,30.9-90.7,38
		c-23.2,5.1-47,6.3-70.6,4.2c-52.2-4.8-98.6-24.7-140.8-55.3c-22.7-16.5-42.9-35.7-61.6-56.4C24.7,280.9,16,268.8,6,256.3z
		 M349.8,255.9c-1-52.3-41-93.2-93.4-93.1c-52,0.1-92.5,40.5-92.9,92.4c-0.3,52.4,40.4,93.4,92.6,93.6
		C308.5,349,348.6,308.2,349.8,255.9z"/>
	<path d="M276.5,214c-5.5,7.6-5.7,15.1,0.8,21.4c6.1,5.8,13.3,6.3,20.1,0.7c10.9,12.8,7.4,38.6-7.3,53.1
		c-17.4,17-44.2,19.5-64.3,2.6c-17.9-15-21.6-41.2-8.9-61.6C228.9,210.9,257.5,202.6,276.5,214z"/>
</g>
</svg>
