<?xml version="1.0" encoding="utf-8"?>
<!-- Generator: Adobe Illustrator 21.0.0, SVG Export Plug-In . SVG Version: 6.00 Build 0)  -->
<svg version="1.1" id="Layer_1" xmlns="http://www.w3.org/2000/svg" xmlns:xlink="http://www.w3.org/1999/xlink" x="0px" y="0px"
	 viewBox="0 0 512 512" style="enable-background:new 0 0 512 512;" xml:space="preserve">
<g id="_x32_CIifS.tif">
	<g>
		<path d="M456,120.5c0,90.1,0,180.2,0,270.3c-0.2,0.7-0.4,1.4-0.6,2.1c-2.3,12.6-9.3,21.9-20.5,28c-6.3,3.4-13.1,4.2-20.1,4.2
			c-24.2,0-48.3,0-72.5,0c-81.7,0-163.5,0-245.2,0c-16.8,0-29.4-6.9-37.1-21.8c-2-3.9-2.7-8.4-4-12.6c0-89.9,0-179.8,0-269.6
			c0.2-0.7,0.4-1.4,0.6-2.1c2.3-12.5,9.2-21.7,20.2-27.9c6.3-3.6,13.3-4.4,20.4-4.4c39.2,0,78.3,0,117.5,0c66.7,0,133.5,0.1,200.2,0
			c16.7,0,29.2,6.8,37,21.5C453.8,112,454.6,116.4,456,120.5z M132.9,209.9c12.1,0,24.3,0,36.4,0c7.2,0,9.6-2.4,9.7-9.6
			c0.1-14.2,0.1-28.3,0-42.5c0-7.1-2.6-9.6-9.7-9.6c-24.3,0-48.5,0-72.8,0c-7,0-9.7,2.7-9.7,9.6c0,14.2,0,28.3,0,42.5
			c0,7,2.7,9.6,9.8,9.6C108.7,209.9,120.8,209.9,132.9,209.9z M379,209.9c12,0,24.1,0,36.1,0c7.6,0,10.2-2.5,10.2-10.1
			c0-13.8,0-27.7,0-41.5c0-7.4-2.6-10-10-10c-24.2,0-48.3,0-72.5,0c-7.2,0-9.8,2.5-9.8,9.5c-0.1,14.3-0.1,28.5,0,42.8
			c0,6.9,2.6,9.3,9.6,9.4C354.7,209.9,366.8,209.9,379,209.9z M132.9,394.6c12.1,0,24.3,0,36.4,0c7,0,9.7-2.6,9.7-9.6
			c0.1-14.2,0.1-28.3,0-42.5c0-7.1-2.3-9.5-9.4-9.5c-24.5-0.1-49-0.1-73.5,0c-6.9,0-9.4,2.6-9.4,9.5c0,14.2,0,28.3,0,42.5
			c0,7,2.8,9.6,9.7,9.6C108.6,394.6,120.8,394.6,132.9,394.6z M379.3,333C379.3,333,379.3,333,379.3,333c-12.4,0-24.7-0.1-37.1,0
			c-6.8,0-9.3,2.5-9.3,9.2c-0.1,14.3-0.1,28.5,0,42.8c0,7,2.7,9.6,9.8,9.6c24.1,0,48.1,0,72.2,0c7.8,0,10.3-2.5,10.3-10.4
			c0-13.7,0-27.5,0-41.2c0-7.6-2.3-10-9.8-10C403.4,332.9,391.4,333,379.3,333z M256,209.9c12.2,0,24.5,0,36.7,0
			c6.7,0,9.4-2.6,9.4-9.3c0.1-14.3,0-28.5,0-42.8c0-7.1-2.6-9.6-9.7-9.6c-24.3,0-48.5,0-72.8,0c-7.1,0-9.7,2.6-9.7,9.6
			c0,14.2,0,28.3,0,42.5c0,7.1,2.6,9.6,9.7,9.6C231.7,209.9,243.9,209.9,256,209.9z M256.3,333C256.3,333,256.3,333,256.3,333
			c-12.3,0-24.7-0.1-37,0c-7,0-9.4,2.5-9.4,9.5c0,14.1,0,28.1,0,42.2c0,7.4,2.6,10,10,10c24.1,0,48.1,0,72.2,0
			c7.4,0,10.1-2.6,10.1-10c0-13.8,0-27.7,0-41.5c0-7.8-2.3-10.1-10-10.1C280.2,332.9,268.3,333,256.3,333z M379.3,240.6
			c-12.2,0-24.5,0-36.7,0c-7,0-9.5,2.5-9.6,9.3c-0.1,14.3,0,28.5,0,42.8c0,7,2.5,9.4,9.5,9.4c24.4,0,48.8,0,73.1,0
			c7.1,0,9.6-2.5,9.6-9.6c0-14.1,0-28.1,0-42.2c0-7.2-2.6-9.8-9.9-9.8C403.3,240.6,391.3,240.6,379.3,240.6z M132.7,302.1
			c12.2,0,24.5,0,36.7,0c7.2,0,9.6-2.4,9.6-9.6c0-14,0-28.1,0-42.1c0-7.5-2.4-9.8-10.1-9.8c-24.1,0-48.1,0-72.2,0
			c-7.4,0-10,2.5-10,9.9c0,13.9,0,27.9,0,41.8c0,7.3,2.5,9.8,9.8,9.8C108.6,302.1,120.6,302.1,132.7,302.1z M256,302.1
			c12.2,0,24.5,0,36.7,0c6.9,0,9.4-2.5,9.4-9.5c0-14.2,0-28.3,0-42.5c0-7.1-2.6-9.6-9.7-9.6c-24.3,0-48.5,0-72.8,0
			c-7.3,0-9.7,2.5-9.8,9.8c0,13.8,0,27.7,0,41.5c0,7.9,2.3,10.2,10.3,10.2C232.1,302.1,244.1,302.1,256,302.1z"/>
	</g>
</g>
</svg>
