<?xml version="1.0" encoding="utf-8"?>
<!-- Generator: Adobe Illustrator 21.0.0, SVG Export Plug-In . SVG Version: 6.00 Build 0)  -->
<svg version="1.1" id="Layer_1" xmlns="http://www.w3.org/2000/svg" xmlns:xlink="http://www.w3.org/1999/xlink" x="0px" y="0px"
	 viewBox="0 0 512 512" style="enable-background:new 0 0 512 512;" xml:space="preserve">
<style type="text/css">
	.st0{fill:#FFFFFF;}
	.st1{font-family:'JosefinSlab-Bold';}
	.st2{font-size:55.3846px;}
	.st3{enable-background:new    ;}
	.st4{fill:#1B9E77;}
	.st5{fill:#7570B3;}
</style>
<g>
	<g>
		<path class="st0" d="M412.9,452.9H99.1c-22.2,0-40-17.8-40-40V99.1c0-22.2,17.8-40,40-40h313.8c22.2,0,40,17.8,40,40v313.8
			C452.9,435.1,435.1,452.9,412.9,452.9z"/>
		<path d="M412.9,456H99.1C75.3,456,56,436.7,56,412.9V99.1C56,75.3,75.3,56,99.1,56h313.8c23.8,0,43.1,19.3,43.1,43.1v313.8
			C456,436.7,436.7,456,412.9,456z M99.1,62.2c-20.4,0-36.9,16.6-36.9,36.9v313.8c0,20.4,16.6,36.9,36.9,36.9h313.8
			c20.4,0,36.9-16.6,36.9-36.9V99.1c0-20.4-16.6-36.9-36.9-36.9H99.1z"/>
	</g>
	<text id="TextFrame_x5F_15" transform="matrix(1 0 0 1 126.126 427.0156)" class="st1 st2">Theta join </text>
	<g class="st3">
		<path d="M256,105.2l-27.1,19.7V75.1L256,94.8l27.1-19.7v49.8L256,105.2z M236.9,89.2v20.9l14.2-10.5L236.9,89.2z M275.7,89.2
			l-14.2,10.5l14.2,10.5V89.2z"/>
	</g>
	<g id="GroupItem_x5F_1">
		<circle id="PathItem_x5F_29" class="st4" cx="106.5" cy="161.2" r="25.8"/>
		<circle id="PathItem_x5F_27" class="st4" cx="106.5" cy="345.8" r="25.8"/>
		<circle id="PathItem_x5F_26" class="st5" cx="405.5" cy="161.2" r="25.8"/>
		<circle id="PathItem_x5F_25" class="st5" cx="405.5" cy="222.8" r="25.8"/>
		<circle id="PathItem_x5F_24" class="st5" cx="405.5" cy="345.8" r="25.8"/>
		<circle id="PathItem_x5F_23" class="st4" cx="229.5" cy="161.2" r="25.8"/>
		<circle id="PathItem_x5F_22" class="st4" cx="229.5" cy="284.3" r="25.8"/>
		<circle id="PathItem_x5F_21" class="st5" cx="282.5" cy="161.2" r="25.8"/>
		<path class="st5" d="M282.5,251.7c-1.9,0-3.7-0.2-5.5-0.5l1.2-6c3.5,0.7,7.3,0.5,10.7-0.5l1.7,5.9
			C288,251.3,285.2,251.7,282.5,251.7z M264.6,245.5c-3.6-2.8-6.5-6.6-8.4-10.7l5.6-2.6c1.5,3.3,3.8,6.2,6.6,8.4L264.6,245.5z
			 M302.4,243.7l-4.2-4.4c2.6-2.5,4.6-5.6,5.8-9l5.8,2C308.3,236.6,305.8,240.5,302.4,243.7z M259.7,221.7l-6.1-0.3
			c0.2-4.6,1.5-9.1,3.8-13.1l5.3,3.1C260.9,214.5,259.9,218.1,259.7,221.7z M305,219.5c-0.5-3.6-1.9-7-4-10l5-3.6
			c2.7,3.7,4.4,8.1,5.1,12.7L305,219.5z M270.2,203.6l-3.3-5.2c3.9-2.5,8.3-4,12.9-4.5l0.6,6.1C276.7,200.4,273.2,201.7,270.2,203.6
			z M292.9,202.5c-3.2-1.7-6.8-2.5-10.4-2.5v-6.2c4.6,0,9.2,1.1,13.3,3.2L292.9,202.5z"/>
		<circle id="PathItem_x5F_20" class="st5" cx="282.5" cy="284.3" r="25.8"/>
		<g id="PathItem_x5F_19">
			<g>
				<path d="M132.3,348.9v-6.2c16.3,0,24.6-14.2,33.3-29.3c5.4-9.4,11.1-19,18.9-25.4l3.9,4.8c-6.9,5.6-12.3,14.8-17.4,23.7
					C161.7,332.5,152.2,348.9,132.3,348.9z"/>
				<g>
					<path d="M204.3,284.3c-6.8,6.2-14.8,15.4-19.1,23.4l-0.6-15.4l-10.5-11.7C182.8,283.1,194.5,284.3,204.3,284.3z"/>
				</g>
			</g>
		</g>
		<circle id="PathItem_x5F_22_1_" class="st4" cx="229.5" cy="222.8" r="25.8"/>
		<g id="PathItem_x5F_19_8_">
			<g>
				<path d="M184.5,219c-7.8-6.4-13.4-16-18.9-25.4c-8.8-15.1-17-29.3-33.3-29.3v-6.2c19.9,0,29.4,16.5,38.7,32.4
					c5.2,8.9,10.5,18.1,17.4,23.7L184.5,219z"/>
				<g>
					<path d="M204.3,222.8c-9.2,0-21.5,0.6-30.2,3.7l10.5-11.7l0.6-15.4C188.9,207.4,196.9,216.6,204.3,222.8z"/>
				</g>
			</g>
		</g>
		<g id="PathItem_x5F_19_1_">
			<g>
				<path d="M326.9,280.5l-3.9-4.8c6.9-5.6,12.3-14.8,17.4-23.7c9.2-15.9,18.8-32.4,38.7-32.4v6.2c-16.3,0-24.6,14.2-33.3,29.3
					C340.3,264.5,334.7,274.2,326.9,280.5z"/>
				<g>
					<path d="M307.7,284.3c6.8-6.2,14.8-15.4,19.1-23.4l0.6,15.4l10.5,11.7C329.2,284.9,317.5,284.3,307.7,284.3z"/>
				</g>
			</g>
		</g>
		<path class="st4" d="M229.6,374.8c-2.1,0-3.7-0.2-5.5-0.5l1.2-6c1.4,0.3,2.9,0.5,4.4,0.4c2.2,0,4.3-0.3,6.4-0.9l1.7,5.9
			C235.1,374.4,232.4,374.8,229.6,374.8z M211.7,368.6c-3.6-2.8-6.5-6.6-8.4-10.7l5.6-2.6c1.5,3.3,3.8,6.2,6.6,8.4L211.7,368.6z
			 M249.5,366.8l-4.2-4.5c2.6-2.5,4.6-5.6,5.8-9l5.8,2C255.4,359.6,252.8,363.6,249.5,366.8z M206.8,344.8l-6.1-0.3
			c0.2-4.6,1.5-9.1,3.8-13.1l5.3,3.1C208,337.6,207,341.1,206.8,344.8z M252.1,342.6c-0.5-3.6-1.9-7-4-10l5-3.6
			c2.7,3.7,4.4,8.1,5.1,12.7L252.1,342.6z M217.2,326.7l-3.3-5.2c3.9-2.5,8.3-4,12.9-4.5l0.6,6.1
			C223.8,323.5,220.3,324.7,217.2,326.7z M240,325.6c-3.2-1.7-6.8-2.5-10.4-2.5v-6.2c4.6,0,9.2,1.1,13.3,3.2L240,325.6z"/>
		<circle id="PathItem_x5F_20_1_" class="st5" cx="282.5" cy="345.8" r="25.8"/>
		<g id="PathItem_x5F_19_9_">
			<g>
				<rect x="326.2" y="342.8" width="52.9" height="6.2"/>
				<g>
					<path d="M307.7,345.8c8.6-3.1,19.7-8.6,26.5-14.8l-5.5,14.8l5.5,14.8C327.4,354.5,316.9,348.9,307.7,345.8z"/>
				</g>
			</g>
		</g>
		<g id="PathItem_x5F_19_2_">
			<g>
				<rect x="326.2" y="158.2" width="52.9" height="6.2"/>
				<g>
					<path d="M307.7,161.2c8.6-3.1,19.7-8.6,26.5-14.8l-5.5,14.8l5.5,14.8C327.4,169.8,316.9,164.3,307.7,161.2z"/>
				</g>
			</g>
		</g>
		<g id="PathItem_x5F_19_3_">
			<g>
				<rect x="132.3" y="158.2" width="52.9" height="6.2"/>
				<g>
					<path d="M204.3,161.2c-8.6,3.1-19.7,8.6-26.5,14.8l5.5-14.8l-5.5-14.8C184.6,152.6,195.1,158.2,204.3,161.2z"/>
				</g>
			</g>
		</g>
	</g>
	<g>
		<path d="M299.1,132.9c-3.7,0-6.2-1.8-7.4-5.5c-0.6-2.5-1.2-4.9-1.2-8.6c0-8,3.1-13.5,9.2-13.5c3.7,0,5.5,1.2,6.8,3.7
			c1.2,2.5,1.8,6.2,1.8,10.5C307.7,127.4,304.6,132.9,299.1,132.9z M304.6,118.8c0-4.9-0.6-12.3-5.5-12.3c-2.5,0-4.9,2.5-4.9,11.1
			v1.2H304.6z M304.6,120h-10.5c0,5.5,0.6,12.3,5.5,12.3C302.8,131.7,304.6,127.4,304.6,120L304.6,120z"/>
	</g>
</g>
</svg>
