<?xml version="1.0" encoding="utf-8"?>
<!-- Generator: Adobe Illustrator 21.0.2, SVG Export Plug-In . SVG Version: 6.00 Build 0)  -->
<svg version="1.1" id="Layer_1" xmlns="http://www.w3.org/2000/svg" xmlns:xlink="http://www.w3.org/1999/xlink" x="0px" y="0px"
	 viewBox="0 0 512 512" style="enable-background:new 0 0 512 512;" xml:space="preserve">
<g id="_x39_TCBtL.tif">
	<g>
		<path d="M191.1,272.2c-21.8,0-42.7,0-63.9,0c0,42.5,0,84.8,0,127.5c21,0,42,0,63.9,0c0-4.2,0-8.6,0-13c0-21.3,13.3-34.6,34.7-34.6
			c30.3,0,190.7,0,221,0c20.7,0,34.2,13.4,34.2,34c0,20.2,0,40.3,0,60.5c0,19.6-13.8,33.3-33.4,33.3c-31,0-192,0-223,0
			c-19.7,0-33.4-13.7-33.4-33.3c0-4.7,0-9.3,0-14.7c-2,0-3.8,0-5.5,0c-24,0-48,0-72,0c-12.3,0-18.5-6.1-18.5-18.4
			c0-82.3,0-164.6,0-247c0-2,0-4,0-6.7c-2.4,0-4.5,0-6.6,0c-8.5,0-17,0.1-25.5,0c-17.8-0.2-31.8-14-31.9-31.8
			c-0.2-21.3-0.1-42.7,0-64c0.1-18,14.1-32,32.1-32c31.8-0.1,193.7-0.1,225.5,0c18,0.1,32,14,32.2,32c0.1,21.2,0.1,42.3,0,63.5
			c-0.1,18.3-14,32.2-32.4,32.3c-10.3,0.1-150.6,0-161.3,0c0,26.7,0,53.1,0,79.8c21.1,0,42.2,0,63.8,0c0-5,0-10,0-14.9
			c0.1-18.9,13.9-32.7,32.9-32.8c31.3-0.1,192.7-0.1,224,0c19,0,32.8,13.9,32.9,32.8c0.1,20.8,0.1,41.7,0,62.5
			c-0.1,18.6-14,32.5-32.7,32.5c-31.5,0.1-193,0.1-224.5,0c-18.7,0-32.5-13.9-32.6-32.5C191.1,282.4,191.1,277.4,191.1,272.2z
			 M63.3,64.1c0,21.6,0,42.6,0,63.7c32.1,0,193.8,0,225.5,0c0-21.4,0-42.4,0-63.7C256.8,64.1,95.2,64.1,63.3,64.1z M448.9,224.3
			c-32.2,0-193.9,0-225.6,0c0,21.4,0,42.4,0,63.5c32.1,0,193.8,0,225.6,0C448.9,266.5,448.9,245.5,448.9,224.3z M448.8,447.9
			c0-21.6,0-42.6,0-63.7c-32.1,0-193.8,0-225.5,0c0,21.4,0,42.4,0,63.7C255.2,447.9,416.8,447.9,448.8,447.9z"/>
	</g>
</g>
</svg>
