<?xml version="1.0" encoding="utf-8"?>
<!-- Generator: Adobe Illustrator 21.0.0, SVG Export Plug-In . SVG Version: 6.00 Build 0)  -->
<svg version="1.1" id="Layer_1" xmlns="http://www.w3.org/2000/svg" xmlns:xlink="http://www.w3.org/1999/xlink" x="0px" y="0px"
	 viewBox="0 0 512 512" style="enable-background:new 0 0 512 512;" xml:space="preserve">
<g id="PbZB57.tif">
	<g>
		<path d="M456,256.3c-0.2,110.1-89.9,199.8-199.9,199.7C145.6,455.9,55.9,366.2,56,255.9C56.1,145.6,145.9,55.9,256.1,56
			C366.5,56.1,456.2,146,456,256.3z M225.2,239.9c0,2.4,0,3.9,0,5.3c0,41.1,0,82.3,0,123.4c0,8.1,2.3,10.4,10.5,10.4
			c13.5,0,27,0,40.5,0c8.1,0,10.4-2.4,10.4-10.5c0-41,0-82,0-123c0-1.6,0-3.2,0-5.6c1.7,1.6,2.8,2.5,3.8,3.5c8,8,15.9,16,23.9,23.9
			c4.9,4.9,8.7,4.9,13.5,0.2c10.1-10.1,20.2-20.1,30.3-30.3c4.7-4.7,4.6-8.4-0.1-13.2c-31.8-31.9-63.7-63.7-95.5-95.5
			c-4.7-4.7-8.4-4.7-13.1,0.1c-31.9,31.8-63.7,63.7-95.5,95.5c-4.7,4.7-4.7,8.5,0,13.2c10.1,10.1,20.1,20.2,30.2,30.3
			c4.7,4.7,8.4,4.7,13.1,0c8.1-8,16.1-16.1,24.2-24.2C222.4,242.5,223.5,241.5,225.2,239.9z"/>
	</g>
</g>
</svg>
